<?xml version="1.0" encoding="iso-8859-1"?>
<!-- Generator: Adobe Illustrator 16.0.0, SVG Export Plug-In . SVG Version: 6.00 Build 0)  -->
<!DOCTYPE svg PUBLIC "-//W3C//DTD SVG 1.1//EN" "http://www.w3.org/Graphics/SVG/1.1/DTD/svg11.dtd">
<svg version="1.1" id="Capa_1" xmlns="http://www.w3.org/2000/svg" xmlns:xlink="http://www.w3.org/1999/xlink" x="0px" y="0px"
	 width="568.183px" height="568.183px" viewBox="0 0 568.183 568.183" style="enable-background:new 0 0 568.183 568.183;"
	 xml:space="preserve">
<g>
	<g>
		<path d="M425.535,293.943c0.478-1.536,0.808-3.133,0.808-4.822c0-9.027-7.344-16.371-16.371-16.371h-204.31
			c-9.027,0-16.371,7.344-16.371,16.371c0,1.689,0.331,3.286,0.808,4.822H425.535z"/>
		<path d="M509.832,327.965h-52.124h-3.183h-3.194c0.875-2.283,1.401-4.73,1.401-7.313c0-11.353-9.235-20.588-20.588-20.588h-2.649
			h-3.477h-3.96H193.575h-3.959h-3.476h-2.65c-11.353,0-20.588,9.235-20.588,20.588c0,2.583,0.533,5.037,1.401,7.313h-3.188h-3.188
			h-11.683c1.408-6.897-2.411-15.043-11.524-15.043s-12.932,8.146-11.524,15.043h-17.387c-9.78,0-17.711,7.932-17.711,17.711v62.461
			c-47.846,10.135-66.585,62.454-22.693,96.549c22.932,17.81,55.912,16.145,83.14,15.11c43.495-1.646,79.285,9.878,107.449,44.229
			c10.019,12.216,27.234-5.208,17.313-17.308c-22.864-27.889-53.054-45.11-88.734-50.453c-19.07-2.852-38.758-0.686-57.932-0.318
			c-11.23,0.214-22.081-1.426-32.919-4.192c-34.566-8.812-35.435-48.703-5.625-58.488v12.784c0,9.78,7.932,17.712,17.711,17.712
			h404.024c9.779,0,17.711-7.932,17.711-17.712V345.682C527.543,335.896,519.611,327.965,509.832,327.965z"/>
		<path d="M259.683,147.908l20.398,97.565h-41.047c-7.228,0-13.084,5.857-13.084,13.084c0,3.066,1.096,5.845,2.858,8.072h158.019
			c1.763-2.228,2.858-5.012,2.858-8.072c0-7.228-5.857-13.084-13.085-13.084h-46.519l-22.717-108.691
			c20.716-13.158,34.504-36.249,34.504-62.602C341.868,33.213,308.655,0,267.682,0c-40.967,0-74.181,33.213-74.181,74.181
			C193.508,112.437,222.486,143.912,259.683,147.908z M291.893,31.702c20.275,10.367,27.191,34.958,18.366,55.166
			c-5.337,12.222-23.188,1.659-17.895-10.459c4.485-10.282-1.591-22.032-10.931-26.806C269.53,43.513,280.02,25.63,291.893,31.702z"
			/>
	</g>
</g>
<g>
</g>
<g>
</g>
<g>
</g>
<g>
</g>
<g>
</g>
<g>
</g>
<g>
</g>
<g>
</g>
<g>
</g>
<g>
</g>
<g>
</g>
<g>
</g>
<g>
</g>
<g>
</g>
<g>
</g>
</svg>
